<?xml version="1.0" encoding="UTF-8" standalone="no"?>
<!-- Uploaded to: SVG Repo, www.svgrepo.com, Generator: SVG Repo Mixer Tools -->

<svg
   width="35"
   height="35"
   viewBox="0 0 1.05 1.05"
   fill="none"
   version="1.1"
   id="svg1190"
   sodipodi:docname="github2.svg"
   inkscape:version="1.1.2 (0a00cf5339, 2022-02-04)"
   xmlns:inkscape="http://www.inkscape.org/namespaces/inkscape"
   xmlns:sodipodi="http://sodipodi.sourceforge.net/DTD/sodipodi-0.dtd"
   xmlns="http://www.w3.org/2000/svg"
   xmlns:svg="http://www.w3.org/2000/svg">
  <defs
     id="defs1194" />
  <sodipodi:namedview
     id="namedview1192"
     pagecolor="#ffffff"
     bordercolor="#666666"
     borderopacity="1.0"
     inkscape:pageshadow="2"
     inkscape:pageopacity="0.0"
     inkscape:pagecheckerboard="0"
     showgrid="false"
     inkscape:zoom="8.73"
     inkscape:cx="-6.7010309"
     inkscape:cy="58.705613"
     inkscape:window-width="2560"
     inkscape:window-height="1395"
     inkscape:window-x="0"
     inkscape:window-y="45"
     inkscape:window-maximized="1"
     inkscape:current-layer="svg1190" />
  <path
     d="M 0.4020386,1.0027568 V 0.88201273 l 0.001588,-0.0858084 c 0.001909,-0.0266935 0.0123084,-0.0518541 0.0294191,-0.0713293 2.5051e-4,-2.878e-4 5.0245e-4,-5.7062e-4 7.5649e-4,-8.5311e-4 6.6046e-4,-7.3448e-4 2.2553e-4,-0.001927 -7.5649e-4,-0.002045 v 0 C 0.31870778,0.70770545 0.19958004,0.65942747 0.19958004,0.44923707 c -7.452e-4,-0.051768 0.0161445,-0.10195334 0.0473612,-0.14131582 0.001092,-0.001377 0.002201,-0.002741 0.003328,-0.00409 v 0 c 0.001466,-0.001758 0.001947,-0.004139 0.001275,-0.006327 -4.104e-5,-1.3258e-4 -8.162e-5,-2.6562e-4 -1.222e-4,-3.9866e-4 -7.6215e-4,-0.0025 -0.001478,-0.005012 -0.002145,-0.007534 -0.0114752,-0.043332 -0.009008,-0.0896195 0.007142,-0.13139371 1.1889e-4,-3.0854e-4 2.3919e-4,-6.1638e-4 3.5997e-4,-9.2486e-4 6.0284e-4,-0.001537 0.001869,-0.002713 0.003495,-0.003003 v 0 c 0.0101391,-0.001808 0.0511123,-0.004226 0.12955231,0.04994 0.002442,0.001686 0.004919,0.003427 0.007433,0.005224 v 0 c 0.001815,0.001298 0.004124,0.001695 0.006271,0.001084 6.746e-5,-1.934e-5 1.3539e-4,-3.869e-5 2.0286e-4,-5.803e-5 0.004211,-0.001197 0.008433,-0.002333 0.0126641,-0.003408 0.0745624,-0.0189393 0.15225605,-0.0189393 0.22681705,0 0.004015,0.001019 0.008015,0.002094 0.0120117,0.003222 8.492e-5,2.501e-5 1.7456e-4,4.954e-5 2.5948e-4,7.407e-5 0.002525,7.1527e-4 0.005237,2.4817e-4 0.007374,-0.001275 v 0 c 0.00234,-0.001669 0.004647,-0.00329 0.006926,-0.004862 0.0782553,-0.0540559 0.11900335,-0.0517611 0.12918921,-0.0499546 v 0 c 0.001655,2.9392e-4 0.002949,0.00149 0.003571,0.003056 8.023e-5,2.0145e-4 1.5572e-4,4.0243e-4 2.3588e-4,6.0396e-4 0.0164228,0.0417931 0.0190318,0.0882182 0.007548,0.131673 -6.8362e-4,0.002589 -0.001418,0.00517 -0.002203,0.007738 v 0 c -7.0621e-4,0.002309 -1.9813e-4,0.00482 0.001344,0.006677 5.191e-5,5.804e-5 9.91e-5,1.1607e-4 1.4627e-4,1.7456e-4 0.001034,0.001241 0.002051,0.002495 0.003051,0.00376 0.0312178,0.0393625 0.0481078,0.0895478 0.0473626,0.14131583 0,0.21133685 -0.11997506,0.25835025 -0.23485958,0.27115923 v 0 c -6.6498e-4,7.079e-5 -9.6199e-4,8.7007e-4 -5.1424e-4,0.001361 1.6984e-4,1.8871e-4 3.444e-4,3.7747e-4 5.1424e-4,5.6497e-4 0.0115918,0.0129125 0.020584,0.0282364 0.0264058,0.0450275 0.006086,0.017555 0.008563,0.0362991 0.007265,0.0549677 V 1.0027573"
     stroke="#323232"
     stroke-width="0.0943573"
     stroke-linecap="round"
     stroke-linejoin="round"
     id="path1186"
     style="stroke:#000000;stroke-opacity:1" />
  <path
     d="m 0.15565404,0.79253147 c 0.017416,0.002469 0.0340436,0.008884 0.0486246,0.0187533 0.0145805,0.009875 0.0267319,0.0229431 0.0355325,0.0382286 0.007479,0.0136063 0.0175603,0.025599 0.0296677,0.0352851 0.0121074,0.009686 0.0260024,0.0168803 0.0408873,0.021164 0.0148844,0.004288 0.0304656,0.005582 0.0458495,0.003808 0.0153839,-0.001769 0.0302679,-0.006572 0.0437978,-0.0141301"
     stroke="#323232"
     stroke-width="0.0943573"
     stroke-linecap="round"
     stroke-linejoin="round"
     id="path1188"
     style="stroke:#000000;stroke-opacity:1" />
</svg>
