<?xml version="1.0" encoding="UTF-8" standalone="no"?>
<!-- Uploaded to: SVG Repo, www.svgrepo.com, Generator: SVG Repo Mixer Tools -->

<svg
   width="35"
   height="35"
   viewBox="0 0 2.8 2.8"
   stroke-width="3"
   stroke="#000000"
   fill="none"
   version="1.1"
   id="svg935"
   sodipodi:docname="website2.svg"
   inkscape:version="1.1.2 (0a00cf5339, 2022-02-04)"
   xmlns:inkscape="http://www.inkscape.org/namespaces/inkscape"
   xmlns:sodipodi="http://sodipodi.sourceforge.net/DTD/sodipodi-0.dtd"
   xmlns="http://www.w3.org/2000/svg"
   xmlns:svg="http://www.w3.org/2000/svg">
  <defs
     id="defs939" />
  <sodipodi:namedview
     id="namedview937"
     pagecolor="#ffffff"
     bordercolor="#666666"
     borderopacity="1.0"
     inkscape:pageshadow="2"
     inkscape:pageopacity="0.0"
     inkscape:pagecheckerboard="0"
     showgrid="false"
     fit-margin-top="0"
     fit-margin-left="0"
     fit-margin-right="0"
     fit-margin-bottom="0"
     inkscape:zoom="15.16"
     inkscape:cx="13.027705"
     inkscape:cy="18.502639"
     inkscape:window-width="2560"
     inkscape:window-height="1395"
     inkscape:window-x="0"
     inkscape:window-y="45"
     inkscape:window-maximized="1"
     inkscape:current-layer="svg935" />
  <path
     d="M 1.7728462,2.6381061 A 1.1941789,1.1941789 0 1 1 2.5860984,1.505894 1.7888664,1.7888664 0 0 1 2.5510321,1.7941108"
     id="path917"
     style="stroke-width:0.144108" />
  <path
     d="M 1.6734114,2.416179 A 2.2576993,2.2576993 0 0 1 1.3919195,2.6851815"
     id="path919"
     style="stroke-width:0.144108" />
  <path
     d="m 1.3919195,0.29778472 a 1.6399544,1.6399544 0 0 1 0.5557783,1.10483158 1.6365919,1.6365919 0 0 1 0.00432,0.2329753"
     id="path921"
     style="stroke-width:0.144108" />
  <path
     d="M 1.3919195,0.29778472 A 1.6375525,1.6375525 0 0 0 0.83037685,1.5207851 c 0,0.7781858 0.34970325,1.0087594 0.56010165,1.1643964"
     id="path923"
     style="stroke-width:0.144108" />
  <line
     x1="0.3528975"
     y1="0.91745108"
     x2="2.4367058"
     y2="0.91745108"
     id="line925"
     style="stroke-width:0.144108" />
  <line
     x1="1.3919195"
     y1="0.29730436"
     x2="1.3919195"
     y2="2.6851816"
     id="line927"
     style="stroke-width:0.144108" />
  <line
     x1="0.38556209"
     y1="2.1462162"
     x2="1.6340216"
     y2="2.1462162"
     id="line929"
     style="stroke-width:0.144108" />
  <line
     x1="0.19774067"
     y1="1.5207852"
     x2="2.586098"
     y2="1.4914831"
     id="line931"
     style="stroke-width:0.144108" />
  <path
     d="M 2.4280593,2.6995924 2.6408596,2.4863119 2.2565703,2.1020226 2.4751348,1.9622374 a 0.01825374,0.01825374 0 0 0 -0.00576,-0.033625 L 1.7348977,1.7566427 a 0.0187341,0.0187341 0 0 0 -0.022096,0.022096 L 1.8722818,2.527142 a 0.0187341,0.0187341 0 0 0 0.034105,0.00624 L 2.0437702,2.3153031 Z"
     id="path933"
     style="stroke-width:0.144108" />
</svg>
